<?xml version="1.0" encoding="UTF-8"?>
<svg width="14px" height="14px" viewBox="0 0 14 14" version="1.1" xmlns="http://www.w3.org/2000/svg" xmlns:xlink="http://www.w3.org/1999/xlink">
    <!-- Generator: Sketch 63.1 (92452) - https://sketch.com -->
    <title>Mobile/Pop-up/icon/Time</title>
    <desc>Created with Sketch.</desc>
    <g id="Lich-su-giao-dich" stroke="none" stroke-width="1" fill="none" fill-rule="evenodd">
        <g id="DT-lịch-sử-giao-dịch" transform="translate(-24.000000, -219.000000)" fill="#777777" fill-rule="nonzero">
            <g id="Group-7-Copy-7" transform="translate(12.000000, 186.000000)">
                <g id="Group-6" transform="translate(12.000000, 32.000000)">
                    <g id="Mobile/Pop-up/icon/Time" transform="translate(0.000000, 1.000000)">
                        <g id="Time">
                            <g id="clock" transform="translate(0.200000, 0.200000)">
                                <path d="M13.0571556,4.15145701 C12.3401333,2.47887206 11.1216889,1.26244866 9.43606667,0.54314264 C8.59357778,0.183634152 7.71093333,0 6.78882222,0 C5.86686667,0 4.99073333,0.181899867 4.14917778,0.54314264 C2.47751111,1.2605365 1.25366667,2.47618169 0.535377778,4.15145701 C0.175444444,4.99076225 0,5.87006723 0,6.79252923 C0,7.71516911 0.175444444,8.60176698 0.535377778,9.4412501 C1.25366667,11.1165254 2.47766667,12.3394635 4.14917778,13.0570352 C4.99088889,13.418278 5.86684444,13.6 6.78882222,13.6 C7.7108,13.6 8.59357778,13.4163658 9.43593333,13.0570352 C11.1215556,12.337707 12.34,11.1136794 13.0571778,9.4412501 C13.4182,8.59907662 13.6,7.71516911 13.6,6.79252923 C13.6,5.87006723 13.4183556,4.99360826 13.0571556,4.15145701 Z M11.9716444,9.7983795 C11.4378444,10.7143268 10.7065556,11.4409702 9.78553333,11.9782207 C8.87008889,12.512314 7.86704444,12.7816618 6.78897778,12.7816618 C5.97853333,12.7816618 5.2052,12.6254872 4.46897778,12.3055115 C3.73277778,11.9856915 3.09713333,11.5652384 2.5654,11.0333686 C2.03366667,10.5013432 1.61044444,9.8591462 1.29397778,9.12127443 C0.978444444,8.38609302 0.825533333,7.60359675 0.825533333,6.79255147 C0.825533333,5.71373695 1.09044444,4.7152332 1.62124444,3.80182061 C2.15393333,2.88507285 2.88537778,2.15765126 3.79988889,1.62195715 C4.71424444,1.08628528 5.71077778,0.818360407 6.78882222,0.818360407 C7.86704444,0.818360407 8.86991111,1.08786393 9.78537778,1.62195715 C10.7064,2.1592299 11.4361111,2.88662926 11.9714889,3.80179837 C12.5068667,4.71681184 12.7744889,5.71373695 12.7744889,6.79252923 C12.7744889,7.87136598 12.5086222,8.87667347 11.9716444,9.7983795 Z" id="Shape"></path>
                                <path d="M7.2257975,6.69480613 L7.2257975,2.90740234 C7.2257975,2.68076425 7.02453669,2.49795918 6.79352216,2.49795918 C6.57747357,2.49795918 6.38367347,2.68076425 6.38367347,2.90740234 L6.38367347,6.75327928 C6.38367347,6.7606212 6.39861715,6.78994517 6.39861715,6.81179613 C6.38367347,6.94342627 6.4210438,7.0530962 6.51039406,7.14091518 L8.73864984,9.3270156 C8.88775254,9.47330773 9.16341994,9.47330773 9.31241128,9.3270156 C9.48376247,9.15887252 9.47249346,8.91490663 9.31241128,8.75672758 L7.2257975,6.69480613 Z" id="Shape"></path>
                            </g>
                        </g>
                    </g>
                </g>
            </g>
        </g>
    </g>
</svg>