<svg width="15" height="17" viewBox="0 0 15 17" fill="none" xmlns="http://www.w3.org/2000/svg">
<path d="M4.83801 2.43492C3.88559 2.69647 2.93965 2.98087 2.00101 3.28787C1.91529 3.31554 1.8391 3.36663 1.78111 3.43534C1.72312 3.50404 1.68567 3.5876 1.67301 3.67648C1.11901 7.81867 2.39901 10.8409 3.92601 12.8317C4.57252 13.6831 5.34341 14.4331 6.21301 15.0568C6.55901 15.2999 6.86501 15.4753 7.10601 15.5879C7.22601 15.6447 7.32401 15.6826 7.39901 15.7055C7.43181 15.7169 7.46562 15.7253 7.50001 15.7304C7.53398 15.7249 7.56743 15.7165 7.60001 15.7055C7.67601 15.6826 7.77401 15.6447 7.89401 15.5879C8.13401 15.4753 8.44101 15.2989 8.78701 15.0568C9.65659 14.4331 10.4275 13.6831 11.074 12.8317C12.601 10.8419 13.881 7.81867 13.327 3.67648C13.3145 3.58756 13.277 3.50395 13.219 3.43522C13.161 3.3665 13.0848 3.31543 12.999 3.28787C12.348 3.07563 11.249 2.72987 10.162 2.43592C9.05201 2.13599 8.03101 1.91378 7.50001 1.91378C6.97001 1.91378 5.94801 2.13599 4.83801 2.43592V2.43492ZM4.57201 1.40859C5.65701 1.11464 6.81001 0.850586 7.50001 0.850586C8.19001 0.850586 9.34301 1.11464 10.428 1.40859C11.538 1.70752 12.657 2.06126 13.315 2.27549C13.5901 2.36602 13.834 2.53204 14.0187 2.75448C14.2034 2.97692 14.3213 3.24676 14.359 3.53299C14.955 7.99404 13.572 11.3002 11.894 13.4874C11.1824 14.423 10.334 15.247 9.37701 15.9317C9.0461 16.1686 8.69549 16.3769 8.32901 16.5544C8.04901 16.686 7.74801 16.7936 7.50001 16.7936C7.25201 16.7936 6.95201 16.686 6.67101 16.5544C6.30452 16.3769 5.95391 16.1686 5.62301 15.9317C4.66603 15.2469 3.81759 14.423 3.10601 13.4874C1.42801 11.3002 0.0450053 7.99404 0.641005 3.53299C0.678693 3.24676 0.796649 2.97692 0.981322 2.75448C1.166 2.53204 1.4099 2.36602 1.68501 2.27549C2.6402 1.96342 3.60281 1.67437 4.57201 1.40859Z" fill="#9B9B9B"/>
<path d="M10.3539 5.9784C10.4005 6.02468 10.4374 6.07966 10.4626 6.14019C10.4878 6.20072 10.5008 6.26561 10.5008 6.33114C10.5008 6.39668 10.4878 6.46157 10.4626 6.52209C10.4374 6.58262 10.4005 6.6376 10.3539 6.68388L7.3539 9.67321C7.30745 9.71961 7.25228 9.75642 7.19153 9.78153C7.13079 9.80665 7.06567 9.81958 6.9999 9.81958C6.93413 9.81958 6.86901 9.80665 6.80827 9.78153C6.74752 9.75642 6.69234 9.71961 6.6459 9.67321L5.1459 8.17855C5.09941 8.13222 5.06254 8.07723 5.03738 8.01671C5.01222 7.95618 4.99927 7.89132 4.99927 7.82581C4.99927 7.7603 5.01222 7.69543 5.03738 7.6349C5.06254 7.57438 5.09941 7.51939 5.1459 7.47307C5.19239 7.42674 5.24758 7.39 5.30832 7.36493C5.36906 7.33986 5.43416 7.32696 5.4999 7.32696C5.56564 7.32696 5.63074 7.33986 5.69148 7.36493C5.75222 7.39 5.80741 7.42674 5.8539 7.47307L6.9999 8.61598L9.6459 5.9784C9.69234 5.932 9.74752 5.89519 9.80827 5.87008C9.86901 5.84496 9.93413 5.83203 9.9999 5.83203C10.0657 5.83203 10.1308 5.84496 10.1915 5.87008C10.2523 5.89519 10.3075 5.932 10.3539 5.9784Z" fill="#9B9B9B"/>
</svg>
